<svg width="16" height="16" viewBox="0 0 16 16" fill="none" xmlns="http://www.w3.org/2000/svg">
<path d="M14.4005 13.8026C15.4004 12.471 15.9948 10.8165 16 9.02443C16.0113 4.6623 12.4756 1.06258 8.11486 1.00078C3.64364 0.938989 0 4.5448 0 9.0018C0 10.813 0.601326 12.4832 1.61601 13.8235C1.94931 14.2647 2.47579 14.518 3.02839 14.518H12.9716C13.5338 14.518 14.0628 14.2517 14.4005 13.8017V13.8026Z" fill="url(#paint0_linear_16627_1074)"/>
<path d="M7.99996 1.38985C3.83506 1.38985 0.459457 4.76676 0.459457 8.93133C0.459457 11.1446 1.41322 13.1351 2.93177 14.5154C2.96397 14.5172 2.99617 14.518 3.02923 14.518H12.9724C13.0055 14.518 13.0377 14.5172 13.0699 14.5154C14.5884 13.1359 15.5413 11.1455 15.5413 8.93133C15.5413 4.76589 12.1649 1.38985 8.00083 1.38985H7.99996Z" fill="url(#paint1_linear_16627_1074)"/>
<path d="M14.4005 13.3422C14.0628 13.7922 13.5338 14.0585 12.9716 14.0585H3.02839C2.47579 14.0585 1.94931 13.8052 1.61601 13.364C0.648318 12.0846 0.0565647 10.5049 0.00435113 8.78947C0.00174045 8.85996 0 8.93043 0 9.0018C0 10.813 0.601326 12.4832 1.61601 13.8235C1.94931 14.2647 2.47579 14.518 3.02839 14.518H12.9716C13.5338 14.518 14.0628 14.2517 14.4005 13.8017C15.4004 12.4701 15.9948 10.8156 16 9.02359C16 8.93481 15.9982 8.84691 15.9956 8.759C15.9495 10.4762 15.3647 12.0593 14.4005 13.3422Z" fill="#590099"/>
<path d="M7.99997 13.2395C10.379 13.2395 12.3076 11.3107 12.3076 8.93132C12.3076 6.55198 10.379 4.62315 7.99997 4.62315C5.62093 4.62315 3.69235 6.55198 3.69235 8.93132C3.69235 11.3107 5.62093 13.2395 7.99997 13.2395Z" fill="white"/>
<path d="M6.46488 2.41858L6.71637 3.48736C6.76162 3.6797 6.94785 3.80416 7.14278 3.77196C7.42126 3.72496 7.70756 3.70059 7.99996 3.70059C8.29235 3.70059 8.57779 3.72496 8.85713 3.77196C9.05206 3.80416 9.23829 3.6797 9.28354 3.48736L9.53503 2.41858C9.58464 2.20796 9.44714 1.99908 9.23481 1.96166C8.83363 1.89116 8.42114 1.85373 8.00083 1.85373C7.58051 1.85373 7.16715 1.89116 6.76685 1.96166C6.55451 1.99908 6.41701 2.20796 6.46662 2.41858H6.46488Z" fill="white"/>
<path d="M1.59337 7.00441L2.6446 7.32034C2.83344 7.37691 3.03446 7.27856 3.10408 7.09318C3.20328 6.8286 3.32512 6.56837 3.47044 6.3151C3.61577 6.06183 3.78111 5.82684 3.96038 5.60838C4.08569 5.45607 4.0709 5.2324 3.92731 5.0975L3.12757 4.34552C2.97006 4.19757 2.72031 4.21236 2.58194 4.37773C2.32001 4.68931 2.08156 5.02787 1.87097 5.39254C1.66037 5.75721 1.48633 6.1332 1.34709 6.51528C1.27312 6.71806 1.38538 6.94174 1.5925 7.00441H1.59337Z" fill="white"/>
<path d="M3.12756 13.5171L3.9273 12.7652C4.07089 12.6303 4.08568 12.4066 3.96037 12.2543C3.78023 12.0358 3.61576 11.8008 3.47043 11.5476C3.3251 11.2943 3.20327 11.0349 3.10407 10.7695C3.03532 10.585 2.83343 10.4858 2.64459 10.5423L1.59335 10.8583C1.38624 10.9209 1.27398 11.1437 1.34795 11.3474C1.48719 11.7303 1.66123 12.1055 1.87183 12.4701C2.08242 12.8348 2.32086 13.1734 2.5828 13.4849C2.72204 13.6503 2.97179 13.6651 3.12843 13.5171H3.12756Z" fill="white"/>
<path d="M14.4066 10.8591L13.3553 10.5432C13.1665 10.4866 12.9655 10.585 12.8958 10.7703C12.7966 11.0349 12.6748 11.2952 12.5295 11.5484C12.3833 11.8008 12.2188 12.0367 12.0395 12.2551C11.9142 12.4075 11.929 12.6311 12.0726 12.766L12.8723 13.518C13.0299 13.666 13.2796 13.6512 13.418 13.4858C13.6799 13.1742 13.9184 12.8357 14.129 12.471C14.3395 12.1063 14.5136 11.7303 14.6528 11.3483C14.7268 11.1455 14.6145 10.9218 14.4074 10.8591H14.4066Z" fill="white"/>
<path d="M12.8723 4.34638L12.0726 5.09835C11.929 5.23326 11.9142 5.45693 12.0395 5.60924C12.2197 5.8277 12.3842 6.06269 12.5295 6.31596C12.6757 6.56835 12.7966 6.82859 12.8958 7.09404C12.9646 7.27855 13.1665 7.37777 13.3553 7.3212L14.4066 7.00526C14.6137 6.9426 14.7259 6.71979 14.652 6.51613C14.5127 6.13318 14.3387 5.75807 14.1281 5.3934C13.9175 5.02873 13.679 4.69017 13.4171 4.37858C13.2779 4.21322 13.0281 4.19842 12.8715 4.34638H12.8723Z" fill="white"/>
<path d="M5.97588 8.94699C5.97588 8.94699 7.3665 8.42305 8.9799 7.81555C11.2077 6.97655 13.8593 5.97827 13.8593 5.97827C14.136 5.87992 14.3161 6.26461 14.0585 6.41257L6.66945 10.457C6.26567 10.6781 5.76007 10.5301 5.53903 10.1263C5.29449 9.68852 5.50596 9.12019 5.97588 8.94699Z" fill="black"/>
<path d="M7.99998 10.7773C9.01936 10.7773 9.84573 9.95084 9.84573 8.93133C9.84573 7.91182 9.01936 7.08534 7.99998 7.08534C6.9806 7.08534 6.15423 7.91182 6.15423 8.93133C6.15423 9.95084 6.9806 10.7773 7.99998 10.7773Z" fill="url(#paint2_linear_16627_1074)"/>
<path d="M8 9.85476C8.50993 9.85476 8.92331 9.44132 8.92331 8.93133C8.92331 8.42133 8.50993 8.0079 8 8.0079C7.49007 8.0079 7.07669 8.42133 7.07669 8.93133C7.07669 9.44132 7.49007 9.85476 8 9.85476Z" fill="white"/>
<defs>
<linearGradient id="paint0_linear_16627_1074" x1="9.38887" y1="1.12176" x2="6.90113" y2="15.229" gradientUnits="userSpaceOnUse">
<stop stop-color="#FF6EF3"/>
<stop offset="1" stop-color="#8E25CF"/>
</linearGradient>
<linearGradient id="paint1_linear_16627_1074" x1="9.38896" y1="1.1165" x2="6.96801" y2="15.2596" gradientUnits="userSpaceOnUse">
<stop stop-color="#DD00FF"/>
<stop offset="1" stop-color="#6400C2"/>
</linearGradient>
<linearGradient id="paint2_linear_16627_1074" x1="9.38803" y1="1.10197" x2="7.38923" y2="14.5349" gradientUnits="userSpaceOnUse">
<stop stop-color="#DD00FF"/>
<stop offset="1" stop-color="#6400C2"/>
</linearGradient>
</defs>
</svg>
