<svg width="181" height="51" viewBox="0 0 181 51" fill="none" xmlns="http://www.w3.org/2000/svg">
<g clip-path="url(#clip0_69_8)">
<path d="M70.2812 23.1435L76.966 4.22852H81.9552L84.4371 16.0847L88.6401 4.22852H93.1672L86.4824 23.1435H81.9552L79.6457 12.0555H78.7196L74.8059 23.1435H70.2788H70.2812Z" fill="white"/>
<path d="M90.6233 23.1435L97.3084 4.22852H111.813L110.43 8.12938H100.785L99.5513 11.6197H108.245L106.988 15.2385H98.2689L96.8672 19.2426H106.512L105.129 23.1435H90.6233Z" fill="white"/>
<path d="M108.755 23.1435L115.44 4.22852H129.945L128.562 8.12938H118.917L117.683 11.6197H126.376L125.119 15.2385H116.401L114.999 19.2426H124.643L123.26 23.1435H108.755Z" fill="white"/>
<path d="M126.884 23.1435L133.569 4.22852H146.043L148.589 8.1546L144.68 19.2151L139.358 23.1411H126.884V23.1435ZM133.031 19.4994H138.51L140.371 18.1395L143.513 9.23474L142.621 7.87482H137.143L133.031 19.5017V19.4994Z" fill="white"/>
<path d="M152.698 23.1435L155.816 14.3213H162.508L161.863 16.1399H157.437L156.784 18.0066H160.658L160.061 19.6944H156.186L154.966 23.1412H152.698V23.1435Z" fill="white"/>
<path d="M161.755 23.1432L160.897 21.8153L163.067 15.651L164.873 14.3232H170.103L170.96 15.651L168.791 21.8153L166.985 23.1432H161.755ZM166.24 21.4438L166.805 21.0242L168.43 16.4399L168.131 16.0203H165.636L165.059 16.4399L163.434 21.0242L163.719 21.4438H166.24Z" fill="white"/>
<path d="M170.007 23.1435L173.125 14.3213H179.194L180.075 15.6491L178.953 18.8092L177.519 19.8618L177.696 23.1412H175.55L175.444 20.137H173.332L172.273 23.1412H170.005L170.007 23.1435ZM173.932 18.44H176.451L177.027 18.0203L177.583 16.4403L177.31 16.0206H174.791L173.932 18.4377V18.44Z" fill="white"/>
<path d="M84.0603 46.7248L85.4093 42.8743H95.3366L96.5753 41.9754L97.3061 39.8702L96.7201 38.9713H88.9022L87.0707 36.0977L88.985 30.6558L92.8571 27.8076H105.356L104.007 31.6579H94.3371L93.0984 32.557L92.5215 34.2241L93.1075 35.1231H100.925L102.762 37.9713L100.691 43.8743L96.8189 46.7225H84.0624L84.0603 46.7248Z" fill="white"/>
<path d="M103.168 46.7246L109.853 27.8096H114.714L109.412 42.8238H118.156L116.773 46.7246H103.168Z" fill="white"/>
<path d="M121.84 46.7246L120.004 43.8763L124.655 30.6579L128.527 27.8096H139.739L141.575 30.6579L136.924 43.8763L133.052 46.7246H121.84ZM126.059 43.0807H131.46L132.673 42.1816L136.159 32.3526L135.52 31.4537H130.17L128.932 32.3526L125.446 42.1816L126.059 43.0807Z" fill="white"/>
<path d="M143.186 46.7246L148.488 31.7104H143.191L144.574 27.8096H160.031L158.648 31.7104H153.351L148.049 46.7246H143.186Z" fill="white"/>
<path d="M155.943 46.7248L157.292 42.8743H167.219L168.458 41.9754L169.189 39.8702L168.603 38.9713H160.785L158.953 36.0977L160.868 30.6558L164.74 27.8076H177.239L175.89 31.6579H166.22L164.981 32.557L164.404 34.2241L164.99 35.1231H172.808L174.644 37.9713L172.571 43.8743L168.699 46.7225H155.943V46.7248Z" fill="white"/>
<path d="M53.797 47.8027C57.5324 42.8457 59.7528 36.6866 59.7722 30.0156C59.8145 13.7769 46.6058 0.376504 30.3152 0.146468C13.6118 -0.0835681 0 13.3395 0 29.9312C0 36.6736 2.24642 42.8909 6.03705 47.8804C7.28216 49.5231 9.24899 50.4659 11.3134 50.4659H48.4588C50.559 50.4659 52.5356 49.4746 53.797 47.7995V47.8027Z" fill="url(#paint0_linear_69_8)"/>
<path d="M29.8861 1.59473C14.327 1.59473 1.71655 14.1657 1.71655 29.6688C1.71655 37.908 5.2796 45.3177 10.9525 50.4564C11.0728 50.4627 11.1931 50.4659 11.3167 50.4659H48.4623C48.5858 50.4659 48.7061 50.4627 48.8264 50.4564C54.4991 45.3209 58.0591 37.9112 58.0591 29.6688C58.0591 14.1625 45.4453 1.59473 29.8893 1.59473H29.8861Z" fill="url(#paint1_linear_69_8)"/>
<path d="M53.797 46.089C52.5356 47.7639 50.559 48.7554 48.4588 48.7554H11.3134C9.24899 48.7554 7.28216 47.8126 6.03705 46.1699C2.42197 41.4072 0.211313 35.5267 0.0162548 29.1408C0.00650192 29.4033 0 29.6657 0 29.9313C0 36.6737 2.24642 42.8911 6.03705 47.8806C7.28216 49.5232 9.24899 50.466 11.3134 50.466H48.4588C50.559 50.466 52.5356 49.4747 53.797 47.7996C57.5324 42.8426 59.7528 36.6833 59.7722 30.0123C59.7722 29.6818 59.7658 29.3546 59.756 29.0273C59.5837 35.4198 57.3991 41.3132 53.797 46.089Z" fill="#590099"/>
<path d="M29.8862 45.7063C38.7737 45.7063 45.9786 38.526 45.9786 29.6685C45.9786 20.8112 38.7737 13.6309 29.8862 13.6309C20.9987 13.6309 13.7939 20.8112 13.7939 29.6685C13.7939 38.526 20.9987 45.7063 29.8862 45.7063Z" fill="white"/>
<path d="M24.1514 5.42402L25.0909 9.40266C25.26 10.1187 25.9556 10.582 26.6839 10.4621C27.7243 10.2872 28.7939 10.1964 29.8861 10.1964C30.9785 10.1964 32.0447 10.2872 33.0883 10.4621C33.8166 10.582 34.5123 10.1187 34.6813 9.40266L35.6208 5.42402C35.8061 4.63996 35.2925 3.86236 34.4993 3.72304C33.0006 3.4606 31.4595 3.32129 29.8893 3.32129C28.3193 3.32129 26.775 3.4606 25.2795 3.72304C24.4863 3.86236 23.9727 4.63996 24.158 5.42402H24.1514Z" fill="white"/>
<path d="M5.95249 22.4957L9.87966 23.6717C10.5851 23.8825 11.3361 23.5164 11.5962 22.8262C11.9668 21.8412 12.4219 20.8725 12.9648 19.9297C13.5077 18.9868 14.1254 18.1121 14.7951 17.2989C15.2633 16.7319 15.208 15.8992 14.6716 15.397L11.6839 12.5977C11.0955 12.0469 10.1625 12.102 9.64559 12.7176C8.66704 13.8775 7.77629 15.1378 6.98956 16.4953C6.20282 17.8529 5.55263 19.2525 5.03248 20.6749C4.75614 21.4298 5.17551 22.2624 5.94923 22.4957H5.95249Z" fill="white"/>
<path d="M11.6839 46.7397L14.6715 43.9402C15.2079 43.4381 15.2632 42.6055 14.795 42.0386C14.1221 41.2253 13.5077 40.3505 12.9648 39.4076C12.4219 38.4647 11.9667 37.4994 11.5961 36.511C11.3393 35.8242 10.585 35.4549 9.87959 35.6655L5.95242 36.8417C5.1787 37.0748 4.75931 37.9044 5.03565 38.6624C5.5558 40.088 6.20599 41.4844 6.99273 42.842C7.77946 44.1995 8.67023 45.4598 9.64876 46.6196C10.1689 47.2353 11.102 47.2905 11.6871 46.7397H11.6839Z" fill="white"/>
<path d="M53.8198 36.8449L49.8925 35.6687C49.187 35.4581 48.4362 35.8242 48.176 36.5144C47.8055 37.4994 47.3502 38.4679 46.8074 39.4108C46.2612 40.3505 45.6467 41.2285 44.977 42.0418C44.5089 42.6087 44.5643 43.4413 45.1007 43.9434L48.0883 46.7429C48.6766 47.2937 49.6097 47.2385 50.1265 46.6231C51.1052 45.463 51.9959 44.2027 52.7825 42.8452C53.5694 41.4876 54.2195 40.088 54.7397 38.6658C55.0161 37.9108 54.5966 37.0782 53.823 36.8449H53.8198Z" fill="white"/>
<path d="M48.0883 12.6006L45.1007 15.3999C44.5643 15.9021 44.5089 16.7348 44.977 17.3018C45.6501 18.115 46.2644 18.9898 46.8074 19.9326C47.3536 20.8722 47.8055 21.8409 48.176 22.8291C48.4328 23.5161 49.187 23.8854 49.8925 23.6748L53.8198 22.4986C54.5934 22.2653 55.0129 21.4359 54.7365 20.6778C54.2163 19.2522 53.5662 17.8558 52.7794 16.4983C51.9928 15.1407 51.1018 13.8804 50.1233 12.7205C49.6031 12.1049 48.6702 12.0498 48.0851 12.6006H48.0883Z" fill="white"/>
<path d="M22.3243 29.7268C22.3243 29.7268 27.5194 27.7763 33.5467 25.5149C41.8691 22.3915 51.7749 18.6753 51.7749 18.6753C52.8087 18.3092 53.4816 19.7413 52.5194 20.292L24.9154 35.3481C23.4069 36.1711 21.5181 35.6203 20.6924 34.1169C19.7788 32.4872 20.5688 30.3716 22.3243 29.7268Z" fill="black"/>
<path d="M29.886 36.5407C33.6942 36.5407 36.7812 33.4639 36.7812 29.6687C36.7812 25.8734 33.6942 22.7969 29.886 22.7969C26.0779 22.7969 22.9907 25.8734 22.9907 29.6687C22.9907 33.4639 26.0779 36.5407 29.886 36.5407Z" fill="url(#paint2_linear_69_8)"/>
<path d="M29.886 33.1057C31.791 33.1057 33.3352 31.5666 33.3352 29.6681C33.3352 27.7696 31.791 26.2305 29.886 26.2305C27.981 26.2305 26.4368 27.7696 26.4368 29.6681C26.4368 31.5666 27.981 33.1057 29.886 33.1057Z" fill="white"/>
</g>
<defs>
<linearGradient id="paint0_linear_69_8" x1="35.0746" y1="0.59682" x2="25.8444" y2="53.1238" gradientUnits="userSpaceOnUse">
<stop stop-color="#FF6EF3"/>
<stop offset="1" stop-color="#8E25CF"/>
</linearGradient>
<linearGradient id="paint1_linear_69_8" x1="35.0751" y1="0.577253" x2="26.0927" y2="53.237" gradientUnits="userSpaceOnUse">
<stop stop-color="#DD00FF"/>
<stop offset="1" stop-color="#6400C2"/>
</linearGradient>
<linearGradient id="paint2_linear_69_8" x1="35.0715" y1="0.523104" x2="27.6558" y2="50.5364" gradientUnits="userSpaceOnUse">
<stop stop-color="#DD00FF"/>
<stop offset="1" stop-color="#6400C2"/>
</linearGradient>
<clipPath id="clip0_69_8">
<rect width="181" height="51" fill="white"/>
</clipPath>
</defs>
</svg>
